<svg xmlns="http://www.w3.org/2000/svg" width="45" height="45" viewBox="0 0 45 45" fill="none">
  <path d="M45 22.5C45 28.4674 42.6295 34.1903 38.4099 38.4099C34.1903 42.6295 28.4674 45 22.5 45C16.5326 45 10.8097 42.6295 6.5901 38.4099C2.37053 34.1903 0 28.4674 0 22.5C0 16.5326 2.37053 10.8097 6.5901 6.5901C10.8097 2.37053 16.5326 0 22.5 0C28.4674 0 34.1903 2.37053 38.4099 6.5901C42.6295 10.8097 45 16.5326 45 22.5ZM18.8965 33.8379C19.7227 34.6641 21.0586 34.6641 21.876 33.8379C22.6934 33.0117 22.7021 31.6758 21.876 30.8584L15.6357 24.6182L34.4531 24.6094C35.6221 24.6094 36.5625 23.6689 36.5625 22.5C36.5625 21.3311 35.6221 20.3906 34.4531 20.3906H15.6357L21.876 14.1504C22.7021 13.3242 22.7021 11.9883 21.876 11.1709C21.0498 10.3535 19.7139 10.3447 18.8965 11.1709L9.05273 21.0059C8.22656 21.832 8.22656 23.168 9.05273 23.9854L18.8965 33.8379Z" fill="white" fill-opacity="0.8"/>
</svg>