<svg xmlns="http://www.w3.org/2000/svg" width="16" height="20" viewBox="0 0 16 20" fill="none">
  <path d="M3 0C1.62109 0 0.5 1.12109 0.5 2.5V17.5C0.5 18.8789 1.62109 20 3 20H13C14.3789 20 15.5 18.8789 15.5 17.5V6.25H10.5C9.80859 6.25 9.25 5.69141 9.25 5V0H3ZM10.5 0V5H15.5L10.5 0ZM6.58203 9.77344L8 11.8008L9.41797 9.77344C9.71484 9.34766 10.3008 9.24609 10.7227 9.54297C11.1445 9.83984 11.25 10.4258 10.9531 10.8477L9.14453 13.4375L10.957 16.0234C11.2539 16.4492 11.1523 17.0312 10.7266 17.3281C10.3008 17.625 9.71875 17.5234 9.42188 17.0977L8 15.0703L6.58203 17.0977C6.28516 17.5234 5.69922 17.625 5.27734 17.3281C4.85547 17.0312 4.75 16.4453 5.04688 16.0234L6.85547 13.4375L5.04297 10.8516C4.74609 10.4258 4.84766 9.84375 5.27344 9.54688C5.69922 9.25 6.28125 9.35156 6.57812 9.77734L6.58203 9.77344Z" fill="#1F376A"/>
</svg>