<svg xmlns="http://www.w3.org/2000/svg" width="20" height="20" viewBox="0 0 20 20" fill="none">
  <path d="M17.1429 0C18.7188 0 20 1.28125 20 2.85714V17.1429C20 18.7188 18.7188 20 17.1429 20H2.85714C1.28125 20 0 18.7188 0 17.1429V2.85714C0 1.28125 1.28125 0 2.85714 0H17.1429ZM7.14286 5C6.54911 5 6.07143 5.47768 6.07143 6.07143C6.07143 6.66518 6.54911 7.14286 7.14286 7.14286H11.3438L5.3125 13.1696C4.89286 13.5893 4.89286 14.2679 5.3125 14.683C5.73214 15.0982 6.41071 15.1027 6.82589 14.683L12.8527 8.65625L12.8571 13.2143C12.8571 13.808 13.3348 14.2857 13.9286 14.2857C14.5223 14.2857 15 13.808 15 13.2143V6.07143C15 5.47768 14.5223 5 13.9286 5H7.14286Z" fill="#1F376A"/>
</svg>