<svg width="271" height="80" viewBox="0 0 271 80" fill="none" xmlns="http://www.w3.org/2000/svg">
<g clip-path="url(#clip0_11720_4355)">
<path d="M173.392 38.3906C171.396 34.9334 168.774 30.3947 168.328 29.6228C169.02 28.4233 174.964 18.1315 175.655 16.9329H190.471L197.715 29.4806C196.853 30.9732 194.426 35.1763 192.57 38.3906H195.803L200.087 30.9732H214.934L219.217 38.3906H222.448C220.515 35.041 217.914 30.5361 217.315 29.497L224.704 16.7013H239.225C239.917 17.8982 245.861 28.1891 246.553 29.3869C246.097 30.1761 243.364 34.9083 241.352 38.3906H244.586L249.786 29.3869L240.84 13.9024H224.488L216.461 0H198.576L190.417 14.134H174.04L165.096 29.6228L170.16 38.3906H173.392ZM200.192 2.79888H214.846C215.521 3.96804 221.184 13.7758 222.108 15.376L214.719 28.1735H200.192C199.5 26.9748 193.561 16.6857 192.868 15.487C193.561 14.2893 199.5 3.99666 200.192 2.79888Z" fill="#FF7D00"/>
<path d="M31.5517 38.4746L25.3269 54.2036L19.0214 38.4746H15.899L9.55624 54.2036L3.28892 38.4746H0L9.13039 61.3869H9.89971L17.4221 42.8347L24.8603 61.3869H25.6149L34.806 38.4746H31.5517Z" fill="#787878"/>
<path d="M159.041 51.6925L156.558 50.186C155.278 49.4761 154.149 48.5226 153.234 47.3793C152.573 46.4525 152.227 45.338 152.247 44.1997C152.218 43.377 152.371 42.5581 152.694 41.801C153.017 41.044 153.503 40.3672 154.117 39.8188C155.461 38.6591 157.198 38.0564 158.972 38.1335C160.842 38.1228 162.671 38.6828 164.215 39.739V43.4624C163.534 42.7287 162.714 42.1381 161.803 41.7254C160.891 41.3127 159.906 41.0862 158.906 41.0591C157.973 41.0204 157.052 41.2792 156.276 41.798C155.96 42.0024 155.7 42.2831 155.52 42.6143C155.341 42.9454 155.247 43.3164 155.248 43.6931C155.259 44.4049 155.531 45.0879 156.013 45.6117C156.723 46.364 157.548 46.9994 158.456 47.4946L160.952 48.9804C163.737 50.6526 165.128 52.7767 165.126 55.3526C165.156 56.1854 165.008 57.0152 164.691 57.7859C164.374 58.5567 163.896 59.2507 163.289 59.8211C161.984 60.9984 160.27 61.6164 158.515 61.5419C156.285 61.5507 154.117 60.811 152.358 59.4412V55.298C154.12 57.5374 156.159 58.6551 158.477 58.6511C159.403 58.6848 160.311 58.3806 161.03 57.795C161.353 57.5389 161.612 57.2123 161.789 56.8401C161.966 56.468 162.055 56.0603 162.049 55.6484C162.049 54.2563 161.046 52.9377 159.041 51.6925Z" fill="#787878"/>
<path d="M174.838 46.227C175.888 46.1948 176.935 46.3742 177.915 46.7544C178.895 47.1347 179.789 47.708 180.543 48.4404C181.287 49.1574 181.874 50.0219 182.266 50.9787C182.657 51.9354 182.845 52.9632 182.816 53.9965C182.842 55.0087 182.649 56.0145 182.251 56.9457C181.854 57.8768 181.26 58.7115 180.512 59.393C178.933 60.8416 176.848 61.613 174.707 61.5414C173.667 61.571 172.632 61.3936 171.661 61.0196C170.691 60.6455 169.804 60.0823 169.053 59.3627C168.331 58.6461 167.757 57.7932 167.367 56.8534C166.976 55.9135 166.776 54.9055 166.778 53.8877C166.78 52.87 166.985 51.8628 167.379 50.9246C167.773 49.9863 168.35 49.1358 169.076 48.4222C169.844 47.6939 170.748 47.1249 171.737 46.7481C172.726 46.3714 173.78 46.1942 174.838 46.227ZM174.665 48.8879C174.014 48.8655 173.366 48.979 172.761 49.2212C172.157 49.4634 171.609 49.8291 171.154 50.2948C170.697 50.7692 170.34 51.3307 170.104 51.9459C169.868 52.5612 169.759 53.2175 169.782 53.876C169.758 54.5287 169.871 55.1791 170.113 55.7859C170.355 56.3926 170.72 56.9423 171.186 57.3999C171.666 57.8577 172.232 58.2146 172.852 58.4492C173.472 58.6839 174.133 58.7916 174.796 58.766C175.456 58.7903 176.114 58.6804 176.73 58.4427C177.346 58.205 177.907 57.8447 178.38 57.3834C179.286 56.4224 179.786 55.1484 179.775 53.8274C179.764 52.5065 179.244 51.2408 178.322 50.2948C177.837 49.8282 177.264 49.4633 176.636 49.2217C176.008 48.9801 175.337 48.8666 174.665 48.8879Z" fill="#787878"/>
<path d="M188.318 38.4756H185.354V61.2742H188.318V38.4756Z" fill="#787878"/>
<path d="M201.919 61.2734V59.3662C201.308 60.0367 200.571 60.581 199.75 60.9681C198.994 61.3375 198.165 61.5334 197.323 61.5414C196.399 61.5481 195.491 61.3022 194.697 60.8302C193.915 60.3811 193.284 59.712 192.88 58.9065C192.389 57.6196 192.179 56.2421 192.266 54.8673V46.2651H195.23V54.8274C195.128 55.9719 195.365 57.1211 195.912 58.132C196.203 58.4702 196.573 58.7323 196.989 58.8956C197.405 59.059 197.854 59.1187 198.298 59.0695C199.026 59.0539 199.74 58.856 200.372 58.4939C201.005 58.1318 201.536 57.6171 201.919 56.9966V46.2651H204.882V61.2734H201.919Z" fill="#787878"/>
<path d="M207.228 48.631L212.811 43.1504V46.265H217.565V48.9251H212.811V56.2991C212.811 58.0208 213.524 58.8812 214.949 58.8803C216.15 58.8394 217.317 58.4715 218.324 57.8161V60.5811C217.185 61.2213 215.898 61.5525 214.591 61.5421C213.351 61.5846 212.141 61.1585 211.201 60.3487C210.925 60.1179 210.689 59.8441 210.502 59.5377C210.289 59.1717 210.131 58.7759 210.035 58.3634C209.876 57.449 209.813 56.5206 209.847 55.5931V48.9251H207.228V48.631Z" fill="#787878"/>
<path d="M222.162 39.9196C222.393 39.916 222.623 39.9587 222.838 40.0453C223.053 40.1318 223.248 40.2604 223.412 40.4236C223.58 40.5818 223.713 40.7735 223.803 40.9861C223.893 41.1988 223.937 41.4279 223.933 41.6586C223.935 41.8894 223.89 42.1182 223.8 42.3309C223.711 42.5436 223.579 42.7357 223.412 42.8955C223.25 43.0628 223.056 43.1952 222.841 43.2847C222.626 43.3742 222.395 43.4188 222.162 43.4159C221.935 43.4156 221.711 43.3685 221.504 43.2774C221.297 43.1864 221.11 43.0534 220.957 42.8868C220.792 42.7291 220.662 42.5398 220.572 42.3303C220.483 42.1207 220.437 41.8952 220.437 41.6673C220.437 41.4395 220.483 41.214 220.572 41.0044C220.662 40.7948 220.792 40.6055 220.957 40.4479C221.11 40.2815 221.297 40.1488 221.504 40.0579C221.711 39.967 221.935 39.9199 222.162 39.9196ZM220.702 46.265H223.666V61.2733H220.702V46.265Z" fill="#787878"/>
<path d="M234.097 46.2271C235.148 46.1946 236.195 46.3739 237.175 46.7542C238.155 47.1344 239.049 47.7079 239.803 48.4405C240.547 49.1574 241.134 50.0219 241.526 50.9786C241.917 51.9353 242.105 52.9632 242.077 53.9966C242.102 55.0089 241.909 56.0148 241.511 56.946C241.113 57.8771 240.519 58.7117 239.77 59.3931C238.193 60.8417 236.11 61.6132 233.97 61.5415C232.929 61.5712 231.893 61.3939 230.922 61.0199C229.95 60.6459 229.063 60.0826 228.311 59.3628C227.588 58.6459 227.015 57.7927 226.625 56.8526C226.235 55.9126 226.036 54.9045 226.038 53.8867C226.041 52.869 226.245 51.8619 226.64 50.9238C227.035 49.9858 227.612 49.1355 228.338 48.4223C229.105 47.6937 230.009 47.1246 230.998 46.7478C231.986 46.371 233.04 46.194 234.097 46.2271ZM233.922 48.888C233.271 48.866 232.623 48.9798 232.019 49.222C231.415 49.4642 230.867 49.8295 230.412 50.2948C229.955 50.7696 229.599 51.3312 229.363 51.9464C229.128 52.5616 229.019 53.2178 229.042 53.876C229.018 54.5288 229.13 55.1794 229.372 55.7862C229.614 56.393 229.98 56.9426 230.446 57.4C230.925 57.8575 231.492 58.2141 232.111 58.4487C232.731 58.6834 233.392 58.7913 234.054 58.766C234.714 58.7906 235.372 58.6807 235.988 58.443C236.604 58.2053 237.165 57.8449 237.638 57.3835C238.545 56.423 239.045 55.1489 239.035 53.8278C239.024 52.5067 238.504 51.2408 237.581 50.2948C237.096 49.8279 236.523 49.4628 235.894 49.2212C235.266 48.9796 234.595 48.8663 233.922 48.888Z" fill="#787878"/>
<path d="M247.419 46.265V48.089C247.971 47.4241 248.659 46.8862 249.438 46.5123C250.217 46.1383 251.067 45.9371 251.931 45.9224C252.85 45.9188 253.752 46.1708 254.536 46.6501C255.328 47.1241 255.965 47.8185 256.368 48.6484C256.863 49.9271 257.077 51.2972 256.995 52.6659V61.2733H254.031V52.6884C254.125 51.5427 253.881 50.3945 253.33 49.3856C253.053 49.0378 252.693 48.7647 252.284 48.5913C251.874 48.4178 251.428 48.3495 250.986 48.3926C250.263 48.4111 249.557 48.6126 248.933 48.9782C248.309 49.3437 247.788 49.8614 247.419 50.4828V61.2733H244.381V46.265H247.419Z" fill="#787878"/>
<path d="M260.407 60.2078V57.0187C261.212 57.5881 262.076 58.0674 262.985 58.448C263.682 58.7704 264.434 58.9562 265.201 58.9953C265.77 59.0108 266.33 58.8499 266.804 58.5348C267.001 58.4226 267.166 58.2619 267.283 58.0681C267.401 57.8743 267.467 57.6537 267.475 57.4272C267.481 57.2246 267.446 57.0229 267.371 56.8344C267.296 56.646 267.184 56.4746 267.041 56.3309C266.469 55.8425 265.843 55.4206 265.175 55.0733C263.768 54.3885 262.493 53.4603 261.41 52.3316C260.838 51.6313 260.525 50.7559 260.522 49.8519C260.509 49.3072 260.625 48.7671 260.859 48.2751C261.093 47.7832 261.44 47.353 261.87 47.0192C262.864 46.2571 264.093 45.869 265.344 45.9229C266.932 45.954 268.487 46.3803 269.868 47.1632V50.1026C268.584 49.206 267.089 48.6566 265.53 48.5076C265.037 48.4848 264.55 48.6135 264.132 48.8762C263.967 48.9803 263.832 49.1251 263.739 49.2968C263.646 49.4684 263.599 49.6611 263.602 49.8563C263.609 50.0472 263.656 50.2345 263.738 50.4068C263.821 50.5792 263.938 50.733 264.081 50.8589C264.595 51.3101 265.163 51.6956 265.772 52.0064L266.834 52.61C269.34 54.0281 270.593 55.5986 270.592 57.3214C270.604 57.905 270.479 58.4833 270.228 59.0102C269.977 59.5371 269.606 59.998 269.145 60.3562C268.084 61.1784 266.766 61.5984 265.426 61.5418C264.62 61.5512 263.818 61.4558 263.037 61.2582C262.132 60.9849 261.252 60.6334 260.407 60.2078Z" fill="#787878"/>
<path d="M40.4207 46.227C41.4715 46.1949 42.518 46.3742 43.4981 46.7544C44.4782 47.1347 45.3718 47.708 46.126 48.4404C46.8702 49.1577 47.4566 50.0223 47.8477 50.979C48.2388 51.9356 48.4261 52.9634 48.3975 53.9966C48.4228 55.0087 48.2301 56.0145 47.8325 56.9456C47.4349 57.8767 46.8416 58.7114 46.093 59.3931C44.5149 60.8415 42.4314 61.6129 40.2906 61.5415C39.2504 61.571 38.2147 61.3936 37.2436 61.0196C36.2726 60.6456 35.3855 60.0824 34.6339 59.3627C33.9119 58.6457 33.3394 57.7925 32.9495 56.8526C32.5596 55.9127 32.36 54.9048 32.3623 53.8872C32.3647 52.8697 32.5689 51.8627 32.9631 50.9246C33.3573 49.9865 33.9338 49.136 34.659 48.4222C35.4267 47.6938 36.3312 47.1248 37.3201 46.748C38.3091 46.3712 39.3629 46.1941 40.4207 46.227ZM40.2455 48.888C39.5948 48.866 38.9467 48.9797 38.3424 49.2219C37.738 49.4641 37.1908 49.8295 36.7354 50.2948C36.2784 50.7693 35.9214 51.3309 35.6857 51.9461C35.45 52.5613 35.3403 53.2176 35.3633 53.876C35.3393 54.5288 35.4518 55.1795 35.6938 55.7863C35.9357 56.3931 36.3018 56.9428 36.7684 57.4C37.2479 57.8576 37.8144 58.2143 38.4343 58.4489C39.0543 58.6835 39.715 58.7914 40.3773 58.766C41.0372 58.7905 41.6952 58.6805 42.3112 58.4428C42.9273 58.2052 43.4886 57.8448 43.9611 57.3835C44.868 56.4227 45.3683 55.1486 45.3574 53.8275C45.3466 52.5064 44.8255 51.2406 43.903 50.2948C43.4182 49.828 42.8448 49.463 42.2166 49.2214C41.5884 48.9798 40.9182 48.8664 40.2455 48.888Z" fill="#787878"/>
<path d="M53.7382 46.265V49.671L53.9012 49.4099C55.3297 47.0854 56.7585 45.9229 58.1876 45.9224C59.5273 46.0251 60.7769 46.6364 61.6803 47.631L60.1217 50.2538C59.3922 49.4141 58.3697 48.8845 57.263 48.7733C56.7699 48.7854 56.287 48.9166 55.8557 49.1559C55.4243 49.3951 55.0573 49.7352 54.7859 50.1471C54.0816 51.0843 53.7126 52.231 53.7382 53.4031V61.2732H50.7363V46.265H53.7382Z" fill="#787878"/>
<path d="M63.5664 38.4746H66.5301V61.2732H63.5664V38.4746ZM73.3534 46.265H76.9033L70.4565 53.6078L78.1965 61.2732H74.212L66.6437 53.6173L73.3534 46.265Z" fill="#787878"/>
<path d="M80.5125 46.265V45.363C80.5125 42.9318 81.0266 41.1188 82.0546 39.924C82.4973 39.3666 83.06 38.9163 83.7007 38.6063C84.3414 38.2964 85.0438 38.1349 85.7555 38.1338C86.499 38.1494 87.2384 38.2474 87.9603 38.4261V41.3247C87.5218 41.1562 87.057 41.0664 86.5873 41.0593C86.136 41.0074 85.6788 41.0661 85.2552 41.2303C84.8317 41.3946 84.4545 41.6594 84.1562 42.0021C83.61 43.0314 83.3741 44.1971 83.477 45.3578V46.265H86.1762V48.9242H83.477V61.2733H80.5125V48.9242H78.3477V46.265H80.5125Z" fill="#787878"/>
<path d="M95.7214 46.227C96.7721 46.195 97.8186 46.3744 98.7986 46.7547C99.7787 47.1349 100.672 47.7082 101.427 48.4404C102.171 49.1577 102.757 50.0223 103.148 50.979C103.539 51.9356 103.727 52.9634 103.698 53.9966C103.724 55.0088 103.531 56.0146 103.133 56.9458C102.735 57.8769 102.142 58.7116 101.393 59.3931C99.8154 60.8415 97.7325 61.6129 95.5921 61.5415C94.5518 61.5712 93.5159 61.3939 92.5447 61.0199C91.5734 60.6459 90.6862 60.0826 89.9345 59.3627C89.2124 58.6458 88.6397 57.7927 88.2496 56.8528C87.8595 55.9129 87.6599 54.905 87.6621 53.8874C87.6644 52.8698 87.8685 51.8628 88.2628 50.9247C88.657 49.9865 89.2335 49.136 89.9588 48.4222C90.7267 47.6938 91.6313 47.1247 92.6204 46.748C93.6095 46.3712 94.6634 46.1941 95.7214 46.227ZM95.547 48.888C94.8962 48.866 94.248 48.9797 93.6435 49.2219C93.039 49.4641 92.4916 49.8295 92.0361 50.2948C91.5794 50.7696 91.2226 51.3311 90.9869 51.9463C90.7513 52.5614 90.6414 53.2176 90.664 53.876C90.6401 54.5288 90.7528 55.1794 90.9948 55.7862C91.2367 56.393 91.6026 56.9426 92.069 57.4C92.5486 57.8576 93.1151 58.2143 93.735 58.4489C94.3549 58.6835 95.0156 58.7914 95.678 58.766C96.3379 58.7905 96.9958 58.6805 97.6119 58.4428C98.228 58.2052 98.7893 57.8448 99.2618 57.3835C100.169 56.4229 100.669 55.1489 100.659 53.8278C100.648 52.5067 100.128 51.2408 99.2054 50.2948C98.7203 49.8282 98.1467 49.4633 97.5184 49.2217C96.8901 48.9801 96.2198 48.8666 95.547 48.888Z" fill="#787878"/>
<path d="M108.979 46.265V49.671L109.142 49.4099C110.571 47.0854 112 45.9229 113.429 45.9224C114.768 46.0247 116.018 46.6362 116.921 47.631L115.362 50.2538C114.633 49.4138 113.61 48.8842 112.503 48.7733C112.01 48.7854 111.527 48.9166 111.096 49.1559C110.665 49.3951 110.298 49.7352 110.026 50.1471C109.322 51.0844 108.953 52.2311 108.979 53.4031V61.2732H105.978V46.265H108.979Z" fill="#787878"/>
<path d="M129.378 57.7793V60.7117C127.977 61.2474 126.492 61.5285 124.993 61.5417C123.96 61.6173 122.923 61.47 121.951 61.1096C120.98 60.7492 120.098 60.1843 119.364 59.453C118.63 58.7218 118.062 57.8414 117.698 56.8714C117.335 55.9014 117.184 54.8646 117.256 53.8312C117.159 51.7261 117.894 49.6675 119.304 48.1007C119.996 47.3755 120.835 46.8061 121.765 46.4306C122.695 46.055 123.695 45.882 124.697 45.9229C125.4 45.9151 126.102 45.9899 126.788 46.1458C127.573 46.3517 128.338 46.6278 129.074 46.9706V50.1416C127.839 49.27 126.381 48.769 124.871 48.6975C124.248 48.6789 123.629 48.7964 123.056 49.0416C122.483 49.2868 121.971 49.6539 121.554 50.1173C120.672 51.1098 120.207 52.4045 120.257 53.7314C120.223 54.4075 120.33 55.0831 120.571 55.7156C120.812 56.3481 121.182 56.9235 121.657 57.4054C122.165 57.8716 122.759 58.2321 123.407 58.4657C124.055 58.6994 124.743 58.8016 125.431 58.7663C126.801 58.7129 128.144 58.3769 129.378 57.7793Z" fill="#787878"/>
<path d="M144.574 54.0175H133.961C133.973 55.3106 134.496 56.5463 135.417 57.4539C135.881 57.8829 136.424 58.2162 137.017 58.4347C137.609 58.6532 138.239 58.7526 138.87 58.7271C140.833 58.729 142.743 58.0888 144.308 56.904V59.8078C143.471 60.3791 142.552 60.819 141.582 61.1123C140.551 61.389 139.487 61.52 138.419 61.5017C137.001 61.5673 135.596 61.2089 134.383 60.4722C133.342 59.7684 132.496 58.8139 131.921 57.6967C131.284 56.4495 130.967 55.0638 130.997 53.6637C130.909 51.6205 131.606 49.621 132.944 48.0746C133.58 47.3685 134.364 46.81 135.239 46.4383C136.114 46.0666 137.06 45.8906 138.01 45.9227C138.914 45.8865 139.814 46.0567 140.642 46.4202C141.47 46.7837 142.205 47.3311 142.79 48.0208C144.045 49.6157 144.679 51.6117 144.574 53.6385V54.0175ZM134.037 52.2308H141.647C141.639 51.2132 141.26 50.2335 140.58 49.4762C140.242 49.1475 139.841 48.892 139.4 48.7254C138.959 48.5589 138.489 48.485 138.019 48.5083C137.046 48.472 136.098 48.8197 135.38 49.4762C134.641 50.2214 134.169 51.1897 134.037 52.2308Z" fill="#787878"/>
<path d="M94.412 72.9808C94.4166 72.6328 94.323 72.2905 94.1418 71.9932C93.9548 71.7394 93.7067 71.5369 93.4206 71.4045C93.1344 71.2722 92.8195 71.2142 92.505 71.2361C90.1245 71.2361 89.651 73.4543 89.651 74.9552C89.5986 75.8989 89.8867 76.83 90.4628 77.5792C90.7571 77.8846 91.1171 78.1188 91.5155 78.2642C91.9139 78.4095 92.3402 78.462 92.762 78.4178C93.3009 78.4457 93.8407 78.3818 94.3582 78.2289V76.1724H92.4643V74.5495H96.4545V79.4325C95.3064 79.8258 94.0967 80.0089 92.8836 79.9728C90.6521 79.9728 89.5023 79.4325 88.7315 78.6752C87.833 77.6773 87.3661 76.3642 87.4331 75.023C87.4331 71.5604 89.5972 69.7072 92.5592 69.7072C93.1688 69.6705 93.7794 69.7609 94.3522 69.9728C94.9251 70.1847 95.4476 70.5133 95.8866 70.9379C96.3686 71.5068 96.6194 72.2359 96.5896 72.9809L94.412 72.9808Z" fill="#FF7D00"/>
<path d="M111.326 70.0054V75.9564C111.326 77.0245 111.407 78.3636 113.45 78.3636C113.811 78.3913 114.174 78.3277 114.505 78.1789C114.836 78.03 115.124 77.8006 115.343 77.5115C115.619 77.0033 115.727 76.4214 115.655 75.848V70.0054H117.697V76.1047C117.697 79.0133 115.384 79.9467 113.409 79.9467C112.703 79.995 111.997 79.8655 111.354 79.57C110.711 79.2745 110.153 78.8224 109.73 78.2552C109.324 77.5218 109.15 76.6825 109.23 75.848V70.0054L111.326 70.0054Z" fill="#FF7D00"/>
<path d="M130.527 69.9917H132.664V78.0933H136.857V79.7568H130.527V69.9917Z" fill="#FF7D00"/>
<path d="M148.874 69.9917H155.177V71.5603H150.97V73.9675H154.893V75.5912H150.97V79.7568H148.874V69.9917Z" fill="#FF7D00"/>
<path d="M187.298 73.1695C187.258 72.8316 187.136 71.4518 185.716 71.4518C184.16 71.4518 183.511 73.0747 183.511 75.0905C183.511 75.6716 183.511 78.4447 185.554 78.4447C185.794 78.451 186.034 78.4066 186.256 78.3144C186.479 78.2222 186.68 78.0842 186.845 77.9095C187.011 77.7348 187.138 77.5271 187.219 77.3001C187.299 77.073 187.331 76.8316 187.312 76.5914H189.517C189.526 77.4418 189.212 78.264 188.638 78.891C188.262 79.2595 187.816 79.5469 187.325 79.7353C186.834 79.9237 186.309 80.0091 185.784 79.9862C182.415 79.9862 181.32 77.4977 181.32 75.077C181.32 71.9795 183.052 69.9238 185.798 69.9238C187.935 69.9238 189.435 71.2223 189.435 73.1695H187.298Z" fill="#FF7D00"/>
<path d="M205.971 69.7752C206.604 69.7435 207.238 69.845 207.829 70.0734C208.421 70.3017 208.958 70.6517 209.406 71.1008C210.245 72.1403 210.686 73.4443 210.651 74.7793C210.692 76.1589 210.257 77.5107 209.42 78.6077C208.969 79.068 208.427 79.4295 207.828 79.6692C207.23 79.9089 206.588 80.0216 205.944 80.0002C205.306 80.0221 204.671 79.9148 204.076 79.6848C203.481 79.4548 202.938 79.1069 202.481 78.6619C201.643 77.635 201.214 76.334 201.278 75.0097C201.278 72.4128 202.454 69.7752 205.971 69.7752ZM204.199 77.6744C204.404 77.9439 204.674 78.1572 204.984 78.2943C205.294 78.4314 205.633 78.488 205.971 78.4587C206.329 78.487 206.688 78.4177 207.009 78.2581C207.331 78.0985 207.603 77.8546 207.797 77.5524C208.304 76.7109 208.535 75.7323 208.459 74.753C208.47 74.1623 208.388 73.5735 208.216 73.0082C208.096 72.509 207.81 72.0655 207.404 71.7508C206.999 71.4362 206.498 71.269 205.984 71.2769C205.641 71.266 205.3 71.3348 204.988 71.478C204.676 71.6211 204.401 71.8347 204.185 72.1019C203.713 72.955 203.466 73.9147 203.469 74.8899C203.471 75.8651 203.722 76.8236 204.199 77.6744Z" fill="#FF7D00"/>
<path d="M227.741 69.9785L231.135 79.7571H229.025L228.322 77.6473H224.454L223.723 79.7571H221.722L225.252 69.9785H227.741ZM227.795 76.0651L226.442 71.8987L224.995 76.0651H227.795Z" fill="#FF7D00"/>
<path d="M244.587 76.6324C244.546 76.8779 244.562 77.1298 244.635 77.368C244.708 77.6061 244.836 77.8238 245.008 78.0039C245.18 78.1839 245.392 78.3212 245.626 78.4048C245.861 78.4885 246.112 78.5161 246.359 78.4856C247.495 78.4856 248.212 77.9444 248.212 77.1194C248.212 76.2538 247.603 76.1047 246.359 75.8074C244.032 75.2255 242.761 74.536 242.761 72.8455C242.761 71.2361 243.911 69.8157 246.629 69.8157C247.175 69.7741 247.724 69.8558 248.234 70.0548C248.745 70.2537 249.204 70.5648 249.578 70.9651C249.966 71.4871 250.162 72.1276 250.133 72.7777H248.117C248.123 72.5725 248.086 72.3683 248.007 72.1787C247.928 71.9891 247.81 71.8184 247.661 71.6778C247.511 71.5373 247.333 71.43 247.139 71.3632C246.945 71.2964 246.739 71.2716 246.534 71.2904C245.561 71.2904 244.925 71.8172 244.925 72.6159C244.925 73.5214 245.643 73.684 247.049 74.0355C248.739 74.4412 250.404 74.9011 250.404 76.8086C250.404 78.567 248.942 79.9865 246.237 79.9865C242.491 79.9865 242.464 77.5793 242.45 76.6324L244.587 76.6324Z" fill="#FF7D00"/>
<path d="M264.639 71.6014H261.731V69.9785H269.657V71.6014H266.749V79.7571H264.639V71.6014Z" fill="#FF7D00"/>
</g>
<defs>
<clipPath id="clip0_11720_4355">
<rect width="270.592" height="80" fill="white"/>
</clipPath>
</defs>
</svg>
