<svg width="18" height="22" viewBox="0 0 18 22" fill="none" xmlns="http://www.w3.org/2000/svg">
<path d="M17.2031 4.99862C17.4219 5.21573 17.6094 5.51037 17.7656 5.88255C17.9219 6.25473 18 6.5959 18 6.90605V20.3045C18 20.6147 17.8906 20.8783 17.6719 21.0954C17.4531 21.3125 17.1875 21.4211 16.875 21.4211H1.125C0.8125 21.4211 0.546875 21.3125 0.328125 21.0954C0.109375 20.8783 0 20.6147 0 20.3045V1.69552C0 1.38537 0.109375 1.12174 0.328125 0.904637C0.546875 0.687532 0.8125 0.578979 1.125 0.578979H11.625C11.9375 0.578979 12.2812 0.656517 12.6562 0.811592C13.0312 0.966667 13.3281 1.15276 13.5469 1.36986L17.2031 4.99862ZM12 2.16075V6.53387H16.4062C16.3281 6.30901 16.2422 6.15006 16.1484 6.05701L12.4805 2.41662C12.3867 2.32358 12.2266 2.23828 12 2.16075ZM16.5 19.9324V8.02259H11.625C11.3125 8.02259 11.0469 7.91404 10.8281 7.69693C10.6094 7.47983 10.5 7.2162 10.5 6.90605V2.0677H1.5V19.9324H16.5ZM10.4766 13.0354C10.7344 13.237 11.0625 13.4541 11.4609 13.6867C11.9219 13.6324 12.3789 13.6053 12.832 13.6053C13.9805 13.6053 14.6719 13.7953 14.9062 14.1752C15.0312 14.3458 15.0391 14.5474 14.9297 14.78C14.9297 14.7877 14.9258 14.7955 14.918 14.8033L14.8945 14.8265V14.8381C14.8477 15.1328 14.5703 15.2801 14.0625 15.2801C13.6875 15.2801 13.2383 15.2026 12.7148 15.0475C12.1914 14.8924 11.6836 14.6869 11.1914 14.4311C9.46484 14.6172 7.93359 14.9389 6.59766 15.3964C5.40234 17.4279 4.45703 18.4436 3.76172 18.4436C3.64453 18.4436 3.53516 18.4165 3.43359 18.3622L3.15234 18.2227C3.14453 18.2149 3.12109 18.1955 3.08203 18.1645C3.00391 18.087 2.98047 17.9474 3.01172 17.7458C3.08203 17.4357 3.30078 17.0809 3.66797 16.6816C4.03516 16.2823 4.55078 15.9082 5.21484 15.5592C5.32422 15.4895 5.41406 15.5127 5.48438 15.629C5.5 15.6445 5.50781 15.66 5.50781 15.6755C5.91406 15.0165 6.33203 14.2527 6.76172 13.3843C7.29297 12.3298 7.69922 11.3141 7.98047 10.3371C7.79297 9.70128 7.67383 9.08292 7.62305 8.482C7.57227 7.88108 7.59766 7.38678 7.69922 6.99909C7.78516 6.68894 7.94922 6.53387 8.19141 6.53387H8.44922C8.62891 6.53387 8.76562 6.59202 8.85938 6.70833C9 6.87116 9.03516 7.13478 8.96484 7.49921C8.94922 7.54573 8.93359 7.57675 8.91797 7.59226C8.92578 7.61552 8.92969 7.64653 8.92969 7.6853V8.03422C8.91406 8.98793 8.85938 9.73229 8.76562 10.2673C9.19531 11.5389 9.76562 12.4616 10.4766 13.0354ZM3.72656 17.8156C4.13281 17.6295 4.66797 17.017 5.33203 15.9779C4.93359 16.2881 4.5918 16.6138 4.30664 16.9549C4.02148 17.2961 3.82812 17.583 3.72656 17.8156ZM8.39062 7.1154C8.27344 7.44106 8.26562 7.95281 8.36719 8.65064C8.375 8.59637 8.40234 8.42578 8.44922 8.1389C8.44922 8.11563 8.47656 7.94893 8.53125 7.63878C8.53906 7.60776 8.55469 7.57675 8.57812 7.54573C8.57031 7.53798 8.56641 7.53022 8.56641 7.52247C8.55859 7.50696 8.55469 7.49533 8.55469 7.48758C8.54688 7.317 8.49609 7.17743 8.40234 7.06888C8.40234 7.07663 8.39844 7.08438 8.39062 7.09214V7.1154ZM6.9375 14.8033C7.99219 14.3845 9.10156 14.0705 10.2656 13.8612C10.25 13.8534 10.1992 13.8166 10.1133 13.7507C10.0273 13.6848 9.96484 13.6324 9.92578 13.5937C9.33203 13.0742 8.83594 12.3918 8.4375 11.5467C8.22656 12.2135 7.90234 12.9772 7.46484 13.8379C7.23047 14.2721 7.05469 14.5939 6.9375 14.8033ZM14.5078 14.6172C14.3203 14.4311 13.7734 14.338 12.8672 14.338C13.4609 14.5551 13.9453 14.6637 14.3203 14.6637C14.4297 14.6637 14.5 14.6598 14.5312 14.6521C14.5312 14.6443 14.5234 14.6327 14.5078 14.6172Z" fill="#856E12"/>
</svg>
