<svg xmlns="http://www.w3.org/2000/svg" width="20" height="20" viewBox="0 0 20 20" fill="none">
  <path d="M0 2.5C0 1.12109 1.15726 0 2.58065 0H9.03226V5C9.03226 5.69141 9.60887 6.25 10.3226 6.25H15.4839V11.875H7.09677C5.67339 11.875 4.51613 12.9961 4.51613 14.375V20H2.58065C1.15726 20 0 18.8789 0 17.5V2.5ZM15.4839 5H10.3226V0L15.4839 5ZM7.09677 13.75H8.3871C9.63306 13.75 10.6452 14.7305 10.6452 15.9375C10.6452 17.1445 9.63306 18.125 8.3871 18.125H7.74194V19.375C7.74194 19.7188 7.45161 20 7.09677 20C6.74194 20 6.45161 19.7188 6.45161 19.375V17.5V14.375C6.45161 14.0312 6.74194 13.75 7.09677 13.75ZM8.3871 16.875C8.92339 16.875 9.35484 16.457 9.35484 15.9375C9.35484 15.418 8.92339 15 8.3871 15H7.74194V16.875H8.3871ZM12.2581 13.75H13.5484C14.6169 13.75 15.4839 14.5898 15.4839 15.625V18.125C15.4839 19.1602 14.6169 20 13.5484 20H12.2581C11.9032 20 11.6129 19.7188 11.6129 19.375V14.375C11.6129 14.0312 11.9032 13.75 12.2581 13.75ZM13.5484 18.75C13.9032 18.75 14.1935 18.4688 14.1935 18.125V15.625C14.1935 15.2812 13.9032 15 13.5484 15H12.9032V18.75H13.5484ZM16.7742 14.375C16.7742 14.0312 17.0645 13.75 17.4194 13.75H19.3548C19.7097 13.75 20 14.0312 20 14.375C20 14.7188 19.7097 15 19.3548 15H18.0645V16.25H19.3548C19.7097 16.25 20 16.5312 20 16.875C20 17.2188 19.7097 17.5 19.3548 17.5H18.0645V19.375C18.0645 19.7188 17.7742 20 17.4194 20C17.0645 20 16.7742 19.7188 16.7742 19.375V16.875V14.375Z" fill="#1F376A"/>
</svg>