<svg xmlns="http://www.w3.org/2000/svg" width="16" height="20" viewBox="0 0 16 20" fill="none">
  <path d="M3 0C1.62109 0 0.5 1.12109 0.5 2.5V17.5C0.5 18.8789 1.62109 20 3 20H13C14.3789 20 15.5 18.8789 15.5 17.5V6.25H10.5C9.80859 6.25 9.25 5.69141 9.25 5V0H3ZM10.5 0V5H15.5L10.5 0ZM4.83594 10.043L5.88281 13.5273L7.11719 10C7.25 9.625 7.60547 9.37109 8.00391 9.37109C8.40234 9.37109 8.75781 9.62109 8.89062 10L10.125 13.5273L11.1641 10.043C11.3125 9.54688 11.8359 9.26562 12.332 9.41406C12.8281 9.5625 13.1094 10.0859 12.9609 10.582L11.0859 16.832C10.9688 17.2227 10.6172 17.4922 10.2109 17.5C9.80469 17.5078 9.4375 17.2578 9.30469 16.8711L8 13.1484L6.69922 16.8711C6.56641 17.2539 6.19922 17.5078 5.79297 17.5C5.38672 17.4922 5.03125 17.2227 4.91797 16.832L3.04297 10.582C2.89453 10.0859 3.17578 9.5625 3.67188 9.41406C4.16797 9.26562 4.69141 9.54688 4.83984 10.043H4.83594Z" fill="#1F376A"/>
</svg>